<?xml version="1.0" standalone="no"?>
<!DOCTYPE svg PUBLIC "-//W3C//DTD SVG 20010904//EN"
 "http://www.w3.org/TR/2001/REC-SVG-20010904/DTD/svg10.dtd">
<svg version="1.0" xmlns="http://www.w3.org/2000/svg"
 width="1275.000000pt" height="1650.000000pt" viewBox="0 0 1275.000000 1650.000000"
 preserveAspectRatio="xMidYMid meet">
<metadata>
Created by potrace 1.15, written by Peter Selinger 2001-2017
</metadata>
<g transform="translate(0.000000,1650.000000) scale(0.100000,-0.100000)"
fill="#000000" stroke="none">
<path d="M11625 13231 c-3 -6 -31 -11 -61 -11 -30 0 -54 -4 -54 -9 0 -4 -46
-9 -102 -10 -173 -2 -229 -8 -338 -30 -103 -22 -129 -26 -240 -37 -30 -3 -64
-9 -75 -14 -49 -22 -168 -34 -194 -20 -17 8 -25 8 -35 -3 -22 -22 -119 -41
-143 -28 -15 7 -38 8 -75 1 -29 -5 -78 -12 -108 -15 -86 -8 -132 -16 -168 -27
-23 -7 -37 -7 -46 1 -10 8 -21 8 -42 0 -49 -19 -121 -22 -205 -9 -60 9 -83 10
-92 1 -6 -6 -23 -11 -38 -11 -15 0 -31 -5 -35 -11 -3 -6 -16 -8 -27 -5 -11 3
-33 -2 -48 -11 -27 -16 -29 -16 -53 10 -24 26 -26 26 -82 16 -31 -6 -73 -7
-93 -3 -20 4 -88 8 -151 10 -121 4 -188 12 -205 24 -5 4 -44 5 -85 2 -41 -3
-111 -4 -155 -3 -176 2 -247 1 -263 -7 -31 -15 -166 -8 -194 10 -21 14 -28 15
-37 4 -17 -20 -249 -11 -272 10 -14 13 -27 15 -56 9 -21 -5 -54 -10 -73 -11
-19 -2 -52 -5 -72 -7 -21 -2 -38 0 -38 4 0 13 -37 11 -60 -3 -16 -10 -24 -10
-40 0 -14 8 -49 10 -117 7 -229 -12 -343 -14 -348 -5 -3 6 -71 10 -153 10
-146 0 -166 2 -272 35 -41 13 -59 14 -72 6 -22 -14 -48 -14 -48 -1 0 6 -17 10
-38 10 -29 0 -44 6 -61 26 -17 19 -27 23 -44 17 -12 -4 -67 -8 -122 -8 -55 0
-108 -5 -118 -9 -11 -5 -28 -4 -42 2 -14 6 -81 12 -149 13 -104 1 -128 -1
-141 -15 -9 -9 -26 -16 -38 -16 -12 0 -35 -7 -51 -15 -22 -12 -32 -12 -42 -4
-18 15 -127 3 -167 -18 -17 -8 -40 -12 -53 -9 -16 4 -30 1 -39 -8 -10 -9 -33
-14 -67 -13 -34 0 -62 -5 -78 -16 -25 -16 -27 -16 -40 3 -19 26 -35 25 -55 -2
-13 -19 -18 -21 -35 -10 -27 16 -71 15 -96 -2 -16 -11 -51 -15 -145 -14 -84 1
-132 -3 -148 -11 -19 -10 -32 -10 -67 -1 -35 10 -50 10 -74 0 -20 -8 -34 -9
-43 -3 -22 18 -100 23 -127 8 -32 -18 -107 -19 -113 -2 -3 10 -9 10 -26 0 -11
-7 -34 -13 -51 -13 -16 0 -30 -4 -30 -10 0 -5 -20 -10 -44 -10 -25 0 -47 -4
-51 -9 -3 -6 -13 -10 -23 -10 -18 0 -69 -12 -137 -31 -22 -7 -49 -12 -60 -12
-45 1 -177 -47 -191 -69 -3 -5 -36 -9 -75 -9 -39 0 -69 -4 -69 -10 0 -5 -15
-10 -33 -10 -18 0 -38 -5 -44 -11 -11 -11 -23 -13 -137 -24 -64 -6 -88 -18
-79 -41 3 -8 0 -14 -6 -14 -6 0 -11 5 -11 10 0 6 -7 10 -15 10 -8 0 -15 5 -15
10 0 6 -13 10 -30 10 -16 0 -30 -4 -30 -9 0 -6 -17 -10 -38 -9 -20 0 -57 -5
-82 -12 -67 -19 -250 -21 -277 -4 -14 9 -24 10 -28 4 -8 -13 -48 -13 -61 0 -5
5 -34 11 -64 14 -30 2 -66 9 -80 13 -14 5 -72 9 -130 8 -81 -1 -114 3 -146 16
-50 23 -80 16 -87 -19 -6 -30 15 -54 39 -45 23 9 166 -20 171 -34 3 -7 11 -13
18 -13 7 0 15 -6 18 -12 3 -9 11 -5 25 10 18 20 23 22 41 10 17 -10 25 -10 41
0 12 7 20 8 20 2 0 -5 24 -10 54 -10 30 0 56 -4 58 -9 2 -5 48 -11 103 -12 55
-1 105 -6 111 -10 6 -5 31 -6 55 -4 24 3 59 7 77 8 18 2 37 9 42 16 4 8 15 11
24 8 21 -8 46 2 46 19 0 8 5 14 10 14 6 0 10 -7 10 -15 0 -8 -4 -15 -10 -15
-5 0 -10 -4 -10 -10 0 -13 33 -13 46 0 9 9 95 24 204 35 92 9 165 25 175 38 6
8 26 13 53 11 33 -2 59 6 106 30 48 25 75 33 124 34 47 1 68 7 84 22 17 15 35
20 80 20 32 0 58 4 58 9 0 5 32 12 72 16 42 4 87 16 107 28 31 17 52 20 148
18 63 -1 129 3 151 10 28 8 45 8 59 0 11 -5 24 -7 27 -3 4 3 43 5 87 4 43 -1
79 1 79 5 0 5 64 9 142 10 81 1 146 7 152 13 5 5 49 10 97 10 48 0 91 4 94 10
3 5 23 10 43 10 86 0 142 5 142 12 0 4 15 8 33 8 30 0 68 13 120 41 11 6 24 6
37 -1 14 -7 26 -8 39 0 11 5 33 10 50 10 16 0 33 5 36 11 4 6 26 9 49 8 25 -2
58 4 79 15 34 16 40 16 84 1 29 -10 61 -14 81 -10 24 4 39 2 52 -10 25 -23 64
-16 68 13 4 26 8 27 47 6 21 -12 52 -16 107 -15 58 1 84 -2 103 -15 18 -12 38
-15 69 -12 27 3 49 0 61 -8 10 -7 22 -11 26 -8 5 3 23 -3 41 -12 23 -12 47
-15 89 -11 41 3 63 1 78 -9 16 -12 24 -12 40 -2 16 9 25 9 43 0 23 -13 122
-24 188 -23 81 2 138 1 183 -5 31 -4 53 -2 60 5 6 6 19 11 29 11 10 0 18 4 18
9 0 9 53 -7 78 -23 8 -5 18 -4 25 3 13 13 116 14 137 1 8 -5 19 -5 25 0 17 14
336 12 351 -2 12 -13 109 -9 123 5 10 10 15 9 25 -5 13 -17 56 -15 56 3 0 15
69 10 95 -7 24 -16 65 -12 65 6 0 6 28 7 63 4 34 -3 118 -7 188 -9 71 -2 137
-9 153 -16 22 -11 32 -10 54 3 20 11 39 14 72 9 25 -4 58 -3 74 2 23 8 30 7
38 -7 10 -18 48 -22 48 -5 0 7 7 8 18 4 48 -21 198 -33 285 -22 31 4 60 1 83
-9 32 -13 91 -12 118 4 5 2 47 6 95 6 47 1 91 4 96 6 6 2 40 0 78 -4 46 -6 76
-5 96 4 23 9 33 9 49 -1 16 -10 26 -10 44 -2 38 19 87 25 205 24 62 0 115 4
118 10 4 5 28 9 56 9 27 0 49 4 49 9 0 5 26 12 58 15 31 3 76 8 100 12 28 4
42 2 42 -5 0 -17 47 -13 54 5 4 11 13 14 27 11 11 -3 42 1 67 9 26 7 64 14 85
14 21 0 45 7 54 16 9 8 21 13 28 10 7 -2 55 0 107 5 51 5 115 11 141 14 27 3
53 8 59 11 6 4 69 8 142 11 72 2 143 9 158 15 16 6 48 7 78 3 34 -5 50 -3 50
4 0 16 52 3 67 -17 11 -14 15 -14 31 1 24 22 73 7 92 -28 7 -14 18 -25 24 -25
13 0 36 -46 36 -71 0 -10 -6 -19 -12 -22 -10 -3 -10 -8 2 -21 8 -10 13 -33 11
-52 -1 -21 2 -34 9 -34 7 0 9 -8 5 -20 -3 -10 -1 -28 4 -39 8 -14 7 -27 -4
-48 -17 -33 -19 -53 -5 -53 15 0 12 -48 -5 -74 -14 -21 -14 -27 4 -69 15 -35
19 -59 14 -97 -4 -39 -2 -54 11 -69 15 -16 15 -19 1 -31 -18 -15 -20 -41 -4
-57 7 -7 8 -20 4 -30 -12 -31 -13 -144 -1 -149 17 -7 18 -93 1 -127 -10 -21
-15 -61 -15 -128 0 -61 -4 -100 -11 -105 -7 -4 -9 -21 -6 -40 4 -23 1 -39 -10
-49 -11 -12 -15 -37 -15 -93 -1 -42 -5 -82 -9 -88 -5 -6 -9 -22 -8 -35 2 -55
-14 -309 -23 -374 -5 -38 -9 -98 -8 -132 1 -35 -3 -64 -10 -68 -8 -5 -7 -11 1
-22 13 -15 22 -144 22 -295 1 -43 3 -78 7 -78 7 0 8 -8 14 -125 5 -113 10
-145 25 -154 7 -4 12 -38 13 -82 0 -41 6 -82 12 -91 8 -13 8 -23 0 -35 -6 -11
-12 -85 -13 -178 -1 -92 -6 -161 -11 -163 -13 -5 -13 -92 0 -92 13 0 13 -33
-1 -47 -6 -6 -11 -45 -10 -92 1 -50 -3 -81 -10 -81 -5 0 -8 -4 -5 -8 3 -5 2
-22 -3 -38 -4 -16 -4 -43 0 -61 4 -19 1 -55 -9 -90 -15 -57 -17 -80 -22 -238
-2 -44 -7 -85 -12 -92 -6 -7 -5 -20 2 -33 9 -16 9 -25 1 -33 -14 -14 -15 -84
-1 -92 11 -7 11 -114 0 -136 -5 -8 -10 -55 -12 -102 -1 -48 -6 -87 -10 -87 -5
0 -8 -14 -8 -31 0 -22 5 -32 20 -36 11 -3 20 -8 20 -12 0 -4 -9 -13 -20 -21
-21 -15 -26 -45 -11 -69 8 -12 12 -12 25 -2 14 12 16 10 16 -7 0 -11 -5 -22
-11 -24 -15 -5 -19 -145 -5 -157 12 -10 14 -210 2 -229 -4 -7 -3 -19 2 -28 5
-9 5 -35 1 -61 -6 -30 -4 -56 5 -83 13 -37 12 -43 -9 -82 -16 -29 -20 -48 -14
-59 4 -9 4 -40 0 -70 -10 -58 -7 -69 13 -69 11 0 11 -10 1 -54 -7 -30 -11 -57
-9 -59 7 -6 -17 -160 -27 -179 -5 -10 -10 -52 -11 -93 0 -42 -4 -78 -9 -81 -5
-3 -9 -16 -9 -30 0 -14 -5 -34 -10 -45 -8 -13 -7 -32 0 -60 8 -29 8 -44 1 -48
-6 -4 -10 -20 -10 -36 2 -47 -6 -96 -26 -154 -17 -53 -17 -53 5 -83 20 -27 21
-32 7 -40 -9 -5 -30 -21 -46 -36 -28 -26 -30 -31 -29 -106 0 -45 -4 -81 -10
-85 -6 -4 -12 -31 -14 -61 -2 -40 -7 -54 -16 -52 -11 2 -12 -8 -7 -50 4 -29
11 -57 15 -61 4 -5 1 -22 -7 -38 -8 -16 -16 -48 -19 -71 -7 -74 -20 -131 -42
-183 -12 -30 -20 -68 -19 -94 1 -28 -3 -46 -11 -49 -15 -5 -16 -52 -1 -52 8 0
8 -4 -1 -15 -7 -9 -9 -26 -5 -45 5 -23 3 -30 -7 -28 -8 2 -14 -8 -16 -24 -2
-16 -7 -28 -11 -28 -5 0 -11 -43 -15 -96 -4 -53 -11 -105 -16 -115 -13 -23
-13 -86 0 -94 15 -9 2 -25 -19 -25 -15 0 -18 -8 -17 -47 0 -27 5 -51 10 -55 5
-3 -2 -21 -15 -40 -34 -45 -72 -125 -65 -137 9 -13 -14 -60 -42 -89 -18 -17
-22 -30 -18 -48 4 -13 3 -24 -2 -24 -11 0 -42 -65 -42 -87 0 -26 -24 -87 -37
-96 -7 -4 -13 -25 -13 -46 0 -38 -19 -91 -32 -91 -5 0 -8 -17 -8 -39 0 -41
-13 -79 -44 -123 -10 -16 -15 -35 -12 -44 3 -9 -2 -32 -13 -53 -40 -76 -52
-112 -49 -148 3 -34 0 -38 -27 -46 -16 -5 -43 -13 -60 -19 -16 -6 -43 -11 -60
-11 -17 0 -35 -7 -42 -17 -10 -15 -26 -16 -115 -12 -184 8 -200 7 -216 -17
-16 -24 -32 -28 -32 -7 0 19 -17 24 -104 32 -59 5 -82 3 -109 -10 -29 -13 -44
-14 -88 -5 -30 6 -58 10 -64 10 -48 -5 -94 -14 -111 -23 -15 -7 -28 -7 -42 1
-29 15 -68 14 -86 -4 -18 -19 -21 -19 -41 1 -12 13 -22 14 -43 6 -22 -8 -142
-9 -261 -3 -13 0 -30 -4 -36 -9 -7 -6 -44 -11 -81 -10 -38 0 -80 0 -94 0 -135
1 -230 9 -262 23 -34 14 -37 14 -54 -4 -9 -10 -24 -19 -32 -19 -8 0 -22 -9
-31 -19 -15 -17 -33 -20 -130 -22 -86 -2 -115 1 -121 11 -7 11 -14 12 -35 2
-31 -14 -72 -16 -80 -3 -3 6 -35 10 -71 10 -36 0 -71 4 -78 10 -7 6 -39 10
-72 10 -97 0 -156 7 -202 25 -29 11 -49 13 -60 7 -11 -6 -26 -4 -45 6 -22 11
-32 12 -43 2 -12 -9 -20 -9 -40 2 -22 11 -30 11 -54 -3 -27 -15 -30 -15 -46 3
-22 25 -44 24 -44 -1 0 -21 -28 -28 -45 -11 -19 16 -90 28 -116 19 -13 -6 -61
-7 -107 -3 -48 3 -89 2 -95 -3 -12 -10 -229 2 -247 13 -5 3 -11 1 -15 -5 -3
-5 -17 -10 -30 -10 -13 0 -31 -10 -39 -22 -12 -17 -16 -18 -16 -7 0 14 -13 16
-87 13 -202 -8 -310 -14 -335 -20 -18 -4 -28 -2 -28 5 0 17 -22 13 -50 -9 -28
-22 -60 -26 -60 -7 0 9 -19 11 -70 9 -46 -3 -76 1 -86 9 -11 9 -18 9 -26 1 -7
-7 -23 -12 -36 -12 -26 0 -26 -17 1 -34 13 -9 20 -6 32 12 21 29 33 28 47 -5
8 -21 12 -24 15 -11 9 36 63 31 63 -6 1 -19 2 -19 11 -3 7 12 17 15 34 11 16
-4 37 1 60 15 20 12 42 21 49 21 20 0 58 -50 53 -70 -4 -16 3 -18 67 -18 39 0
76 4 83 9 7 7 18 6 31 -2 12 -8 29 -9 48 -4 16 5 34 7 41 6 6 -1 14 3 18 9 3
5 16 10 29 10 12 0 27 5 33 11 8 8 17 8 32 -1 12 -6 36 -8 54 -5 18 3 63 8
102 11 38 3 76 10 83 17 10 8 16 7 21 -2 12 -19 79 -31 126 -22 22 4 50 5 60
1 11 -4 23 -3 26 2 8 12 34 12 92 0 26 -5 49 -6 52 -2 4 7 136 4 202 -6 30 -4
48 -2 65 10 29 21 35 20 43 -2 9 -31 97 -58 107 -33 2 4 13 12 26 15 16 6 22
3 22 -8 0 -13 12 -16 58 -16 32 0 63 -5 69 -11 5 -5 57 -12 114 -14 101 -3
132 -7 175 -20 15 -5 23 -2 27 9 7 18 33 22 39 6 3 -10 67 -20 147 -23 30 -1
47 4 56 16 13 19 50 23 60 7 7 -12 75 -14 75 -2 0 11 83 32 130 32 21 0 42 5
45 10 11 17 47 11 52 -9 4 -15 15 -18 61 -18 31 0 63 4 70 10 9 7 21 6 38 -2
20 -9 35 -8 72 5 55 19 157 24 189 10 16 -6 47 -5 95 4 40 7 108 12 151 11 64
-2 77 0 77 13 0 9 7 16 15 16 8 0 15 -6 15 -14 0 -9 19 -16 58 -20 31 -4 76
-10 100 -13 24 -3 42 -1 42 5 0 8 123 24 170 22 8 0 58 -3 111 -6 62 -4 104
-2 117 5 15 8 28 8 47 -1 21 -9 31 -9 46 0 22 14 79 16 79 3 0 -16 27 -20 53
-6 23 12 93 29 124 30 6 0 15 4 19 8 4 4 26 7 49 7 41 0 75 22 75 47 0 6 7 16
14 23 11 9 13 18 5 37 -7 20 -6 30 6 43 8 9 15 30 15 47 0 17 10 42 25 59 18
21 25 41 25 72 0 23 5 42 10 42 6 0 10 8 10 19 0 10 6 24 14 30 8 6 16 24 19
39 3 15 11 46 17 70 11 37 10 45 -4 61 -22 24 -20 30 8 41 18 6 29 23 39 57 8
26 23 66 32 88 10 22 17 47 16 57 -1 9 3 19 9 23 5 3 10 13 10 21 0 25 54 134
66 134 18 0 25 29 14 50 -14 27 -13 32 15 62 14 15 25 38 25 51 0 12 5 28 11
34 6 6 10 37 10 69 0 32 7 71 16 87 8 17 13 43 10 61 -2 17 0 39 5 49 5 10 5
24 -1 34 -6 12 -2 27 15 55 26 41 32 93 12 101 -8 4 -5 8 9 12 24 8 39 51 28
85 -5 14 -2 20 9 20 19 0 21 21 4 38 -9 9 -9 15 0 24 7 7 12 27 12 44 0 18 5
36 10 39 6 3 10 24 10 45 0 21 4 40 9 42 5 2 12 40 15 86 3 46 10 92 16 102 5
10 12 53 14 96 3 44 10 108 15 143 5 36 8 68 5 72 -3 5 0 17 6 29 5 11 15 29
20 40 6 11 10 32 10 47 0 15 10 37 21 50 22 22 32 87 29 185 0 20 4 39 10 43
5 3 10 24 10 45 0 21 4 41 8 44 5 3 8 33 7 68 -2 41 3 74 13 93 10 20 17 64
19 130 3 114 20 217 36 227 8 5 7 14 -3 33 -10 19 -11 28 -2 37 16 16 15 123
0 151 -13 25 -11 100 3 105 5 2 9 21 9 43 0 21 4 39 9 39 8 0 6 125 -3 225
-10 107 -9 177 4 185 7 4 9 13 5 20 -28 46 -46 313 -23 349 14 23 5 49 -23 59
-20 8 -20 10 -5 24 9 10 16 33 16 57 0 23 5 41 10 41 6 0 10 26 10 58 0 32 5
63 12 70 9 9 9 17 0 37 -7 14 -17 37 -24 51 -8 16 -8 28 -3 32 29 20 36 41 24
63 -9 17 -9 46 1 128 7 58 14 158 14 221 1 72 6 123 14 138 9 15 12 54 10 114
-2 66 1 93 10 96 6 2 12 19 12 37 0 19 5 37 11 40 7 5 5 15 -5 31 -19 27 -21
95 -5 111 7 7 13 43 14 81 1 38 5 75 9 81 4 7 1 23 -8 36 -18 27 -21 55 -6 55
17 0 -3 235 -21 246 -5 3 -9 27 -9 54 0 27 -5 52 -10 55 -7 4 -7 12 0 25 7 13
5 28 -5 52 -9 24 -12 53 -8 92 4 43 3 60 -8 66 -11 7 -11 14 3 43 10 22 13 39
7 49 -5 9 -10 29 -12 45 -2 16 -7 35 -11 42 -5 7 -7 52 -5 99 5 148 1 182 -18
182 -15 0 -15 1 -1 13 25 20 43 106 41 200 0 48 3 87 7 87 5 0 9 46 9 103 1
94 9 136 42 224 5 13 4 25 -1 28 -13 8 -13 111 -1 134 5 9 12 96 15 192 3 96
8 233 12 305 5 109 4 133 -9 145 -9 10 -13 26 -10 42 3 15 1 33 -4 40 -6 6 -9
35 -7 62 2 28 6 105 9 172 3 68 10 134 15 148 8 21 5 30 -18 57 -22 26 -29 44
-30 83 -1 28 -7 55 -14 60 -7 6 -21 24 -30 40 -11 20 -32 36 -64 47 -26 9 -51
15 -55 12 -4 -2 -10 0 -14 6 -4 6 -13 5 -25 -3 -15 -9 -24 -9 -39 0 -15 9 -21
8 -35 -8 -15 -18 -18 -18 -32 -4 -8 8 -21 15 -29 15 -7 0 -20 3 -28 6 -8 3
-18 1 -22 -5z"/>
<path d="M2013 12784 c-25 -11 -38 -11 -58 -2 -19 8 -31 8 -50 0 -14 -7 -43
-12 -63 -12 -32 0 -127 -31 -184 -61 -9 -4 -45 -6 -80 -3 -70 5 -108 -8 -108
-39 0 -14 -4 -17 -17 -12 -37 15 -53 17 -53 6 0 -6 -16 -11 -36 -11 -21 0 -49
-9 -67 -22 -24 -17 -49 -24 -102 -26 -38 -3 -75 -8 -81 -13 -8 -6 -14 -4 -18
6 -6 17 -56 21 -56 4 0 -6 -9 -8 -21 -4 -15 5 -22 2 -26 -14 -6 -22 -37 -29
-48 -11 -3 6 -39 10 -79 10 -93 0 -112 -16 -64 -53 18 -13 44 -34 57 -46 29
-25 44 -26 65 -5 19 18 56 15 66 -6 33 -67 43 -156 29 -256 -7 -52 -6 -71 6
-94 18 -34 19 -72 4 -87 -8 -8 -8 -17 -1 -29 5 -10 6 -29 2 -45 -6 -21 -4 -32
11 -45 14 -13 19 -31 19 -70 0 -29 -4 -56 -10 -59 -13 -8 -13 -102 0 -110 6
-3 10 -26 10 -51 0 -24 5 -44 10 -44 6 0 10 -27 10 -60 0 -33 -4 -60 -10 -60
-6 0 -10 -43 -10 -110 0 -67 4 -110 10 -110 13 0 13 -67 0 -75 -5 -3 -9 -25
-9 -48 0 -44 -5 -105 -11 -122 -2 -5 0 -22 4 -36 5 -16 2 -43 -7 -69 -12 -35
-12 -51 -1 -98 8 -36 10 -58 4 -60 -6 -2 -10 -12 -10 -22 0 -10 -7 -31 -15
-46 -20 -39 -19 -71 3 -83 16 -10 16 -10 0 -11 -15 0 -18 -10 -19 -52 0 -29
-2 -71 -4 -93 -8 -97 -8 -131 3 -152 14 -26 8 -184 -9 -214 -6 -12 -8 -33 -4
-48 19 -73 32 -251 20 -287 -4 -13 -1 -27 9 -37 20 -20 20 -34 1 -53 -8 -9
-15 -30 -16 -47 -5 -147 -8 -209 -14 -226 -4 -12 0 -21 12 -25 13 -5 14 -9 5
-15 -11 -6 -11 -24 -2 -89 6 -45 8 -97 5 -114 -3 -18 -7 -49 -9 -68 -7 -66
-19 -115 -29 -129 -9 -10 -6 -17 8 -27 18 -13 19 -25 16 -126 -1 -62 -6 -119
-11 -128 -4 -8 -7 -59 -5 -113 1 -54 -2 -100 -7 -103 -4 -3 -8 -43 -8 -89 0
-47 -5 -87 -10 -90 -6 -4 -10 -28 -10 -53 2 -121 0 -192 -7 -192 -5 0 -17 -18
-27 -40 -16 -33 -17 -42 -6 -55 11 -13 8 -23 -20 -61 -30 -43 -32 -47 -21 -89
9 -35 8 -49 -4 -72 -8 -15 -15 -46 -15 -69 0 -22 -3 -44 -7 -48 -4 -3 -9 -48
-11 -99 -2 -51 -8 -96 -13 -102 -5 -5 -9 -25 -9 -45 0 -20 -4 -40 -8 -45 -19
-23 -32 -111 -23 -163 4 -29 4 -55 0 -58 -12 -7 -11 -119 2 -174 6 -28 19 -53
35 -66 22 -18 24 -23 12 -35 -36 -36 -47 -64 -41 -106 3 -24 10 -43 14 -43 13
0 11 -88 -3 -110 -10 -15 -10 -26 0 -53 7 -18 12 -45 12 -60 0 -15 4 -27 9
-27 19 0 23 -41 7 -59 -21 -23 -20 -34 4 -56 25 -23 25 -33 -1 -56 -20 -17
-21 -22 -10 -63 6 -25 11 -63 11 -85 0 -22 5 -41 12 -43 10 -4 10 -11 2 -29
-13 -30 -6 -240 8 -254 4 -4 4 -35 1 -70 -4 -41 -2 -65 6 -69 16 -10 14 -41
-5 -57 -10 -8 -13 -20 -9 -33 7 -25 19 -163 16 -191 -1 -11 -4 -51 -6 -90 -5
-70 -18 -142 -36 -202 -7 -22 -7 -39 0 -52 15 -28 14 -402 -1 -436 -8 -18 -8
-31 0 -48 21 -43 24 -94 6 -112 -14 -13 -15 -18 -4 -25 16 -10 16 -166 0 -185
-7 -9 -7 -21 0 -40 6 -15 11 -75 11 -132 0 -103 0 -103 23 -97 32 8 42 -21 15
-44 -45 -37 -46 -38 -42 -124 3 -45 4 -100 3 -121 0 -21 7 -53 16 -70 10 -19
16 -53 15 -85 -1 -32 4 -58 12 -65 20 -19 55 -37 71 -37 7 0 34 -11 59 -25 39
-22 48 -24 71 -13 21 9 34 9 60 0 38 -14 86 -16 86 -3 0 5 30 7 68 6 37 -1 83
4 103 11 33 11 40 10 70 -8 36 -22 85 -26 117 -9 25 13 99 15 106 2 7 -11 203
-8 229 4 9 4 23 3 30 -3 15 -13 218 -19 238 -7 8 5 11 5 7 0 -9 -10 16 -35 36
-35 8 0 18 5 22 11 4 7 23 9 53 5 25 -4 66 -9 91 -12 25 -3 57 -10 73 -16 16
-6 48 -8 77 -4 36 5 52 3 62 -7 11 -12 19 -11 56 7 35 16 45 18 51 7 6 -9 14
-10 27 -3 11 5 56 12 101 14 45 3 89 10 97 17 9 7 22 11 31 8 8 -4 17 -2 20 3
4 6 18 7 32 4 13 -4 43 -1 65 7 32 10 41 10 48 0 6 -11 12 -10 32 3 17 11 44
16 85 15 33 -1 68 3 79 9 10 5 39 13 64 18 57 10 62 11 78 12 6 1 12 12 12 23
0 20 4 21 56 17 51 -4 56 -3 65 18 8 22 13 23 56 17 26 -3 56 -10 66 -15 23
-12 33 12 17 41 -14 26 -1 27 43 4 39 -20 173 -19 214 2 16 9 30 10 33 5 4 -6
37 -2 82 9 63 15 78 16 82 5 8 -20 29 -17 44 6 11 19 14 19 28 6 12 -12 20
-13 39 -4 14 6 25 15 25 20 0 4 14 8 30 8 17 0 30 -4 30 -8 0 -12 119 -12 126
-1 7 12 67 12 79 0 12 -11 105 2 114 17 9 15 104 19 109 4 5 -15 32 -16 32 -1
0 6 11 9 24 7 13 -1 31 3 40 11 14 12 23 12 55 1 23 -7 52 -10 68 -6 51 13
158 25 176 20 9 -3 17 -1 17 4 0 16 -28 22 -55 12 -14 -5 -32 -7 -40 -4 -17 7
-21 34 -5 34 6 0 10 5 10 11 0 6 -7 8 -16 5 -9 -4 -22 -2 -29 4 -17 14 -66 18
-112 10 -21 -4 -28 -8 -15 -9 15 -1 22 -7 22 -21 0 -30 -44 -27 -58 5 -12 26
-45 34 -57 14 -5 -6 -22 -8 -46 -4 -24 4 -45 3 -53 -4 -14 -12 -112 -18 -122
-8 -3 3 -27 -1 -52 -9 -26 -7 -58 -14 -72 -14 -14 0 -37 -11 -52 -25 -31 -29
-45 -31 -84 -10 -16 8 -37 15 -46 15 -9 0 -20 4 -23 10 -10 16 -72 12 -79 -5
-6 -17 -36 -21 -36 -5 0 15 -26 12 -40 -5 -9 -11 -16 -12 -26 -4 -8 6 -23 7
-36 3 -13 -4 -57 -8 -98 -10 -115 -3 -213 -14 -237 -26 -17 -8 -26 -8 -39 3
-13 11 -18 11 -21 2 -3 -7 -11 -13 -19 -13 -8 0 -14 -4 -14 -10 0 -5 -12 -10
-26 -10 -14 0 -34 -4 -44 -10 -13 -7 -35 -6 -69 2 -49 11 -51 11 -74 -16 -19
-22 -32 -27 -72 -28 -27 0 -64 -7 -83 -15 -19 -8 -46 -12 -59 -8 -16 4 -34 -2
-55 -16 l-31 -22 -18 21 c-20 26 -35 28 -43 6 -4 -10 -16 -14 -33 -13 -37 4
-52 -6 -46 -31 6 -24 3 -24 -44 -5 -46 19 -102 19 -124 0 -15 -14 -18 -14 -33
1 -15 15 -21 15 -44 3 -15 -8 -32 -21 -39 -29 -10 -13 -13 -13 -25 1 -7 9 -28
22 -46 29 -28 11 -35 11 -42 0 -5 -9 -28 -12 -70 -11 -35 1 -68 -3 -76 -10
-10 -8 -14 -8 -14 0 0 6 -8 11 -17 11 -10 0 -29 9 -43 20 -30 24 -37 24 -56 6
-10 -10 -22 -12 -42 -7 -15 4 -53 5 -85 1 -47 -5 -60 -3 -67 9 -7 13 -12 13
-33 2 -22 -12 -28 -12 -42 3 -18 17 -38 15 -84 -7 -19 -9 -25 -9 -28 1 -3 6
-19 12 -36 13 -18 0 -41 4 -52 8 -13 5 -31 3 -49 -6 -32 -17 -164 -11 -221 9
-23 8 -39 7 -68 -6 -28 -11 -44 -13 -57 -6 -10 6 -62 10 -115 10 -69 0 -102 4
-119 15 -31 21 -76 5 -77 -27 -1 -18 -2 -19 -6 -5 -6 25 -49 40 -74 27 -23
-13 -82 5 -123 35 -24 19 -26 25 -26 105 0 47 -4 90 -10 96 -14 14 -16 87 -2
92 14 4 16 38 2 47 -13 8 -13 92 0 100 6 4 1 18 -12 35 -16 23 -19 32 -10 43
14 17 13 146 -1 165 -6 8 -4 30 8 68 10 33 14 66 10 82 -13 53 -23 177 -14
186 12 13 12 66 0 66 -18 0 -20 30 -6 71 12 32 15 84 13 221 -2 148 0 181 12
189 12 9 11 10 -3 5 -17 -6 -18 -2 -11 46 4 29 7 73 6 97 -1 24 4 51 11 59 10
13 15 52 17 142 0 14 -2 44 -6 66 -4 26 -2 44 5 48 7 5 8 13 2 25 -11 20 -9
60 4 81 10 17 7 100 -4 115 -5 5 -12 25 -16 43 -5 25 -12 32 -31 32 -13 0 -24
5 -24 10 0 6 11 10 25 10 19 0 25 6 30 33 5 31 3 67 -7 97 -3 8 -9 29 -15 46
-7 22 -7 35 2 48 19 25 29 88 15 96 -6 4 -12 30 -12 58 -1 29 -5 52 -10 52 -5
0 -3 9 5 20 12 18 11 33 -9 123 -12 56 -18 104 -14 107 5 3 11 23 13 45 3 22
9 59 13 83 6 37 4 45 -14 57 -17 13 -19 20 -11 57 6 23 7 55 3 72 -4 17 -6 41
-5 54 1 13 -2 28 -7 35 -13 15 -8 279 6 330 5 20 8 46 5 56 -3 11 3 30 12 44
12 19 17 54 19 151 1 69 5 129 9 132 4 4 7 18 7 31 0 13 5 32 12 42 9 15 9 26
1 43 -10 23 -3 51 16 68 3 3 13 18 21 33 11 22 12 34 3 58 -9 24 -9 29 4 29
10 0 12 6 8 20 -4 12 0 31 9 45 9 13 16 32 16 42 0 10 7 27 15 37 8 11 15 32
15 48 0 23 -4 28 -25 28 -16 0 -25 6 -25 15 0 18 36 20 44 3 3 -7 3 6 0 28 -3
26 -1 45 6 49 6 4 11 28 10 53 -2 260 0 313 15 336 14 22 14 25 -1 40 -14 15
-15 24 -4 81 11 57 20 162 20 220 0 11 0 48 0 82 0 39 5 72 14 86 14 20 14 26
1 51 -17 32 -20 82 -5 91 13 8 13 62 0 70 -14 9 -13 168 1 199 9 20 9 29 -1
41 -10 12 -10 19 -2 27 15 15 15 61 0 76 -8 8 -8 15 2 27 8 10 10 29 7 53 -4
24 -1 47 8 66 17 33 20 66 5 66 -5 0 -10 10 -10 23 0 12 -9 28 -20 35 -16 10
-18 16 -10 38 6 14 10 38 10 54 0 16 5 32 10 35 16 10 12 146 -5 165 -11 13
-13 27 -6 70 5 33 5 62 -1 73 -5 11 -5 37 1 70 5 29 7 72 4 94 -4 32 -1 47 16
70 12 16 21 43 21 63 0 203 0 260 4 358 3 61 8 117 12 123 4 6 8 118 9 248 2
195 0 239 -12 253 -13 15 -13 21 1 49 9 18 16 41 16 51 0 11 5 28 10 39 8 15
7 23 -5 35 -8 8 -17 25 -20 37 -3 12 -10 42 -16 67 -7 25 -13 119 -15 209 -1
90 -8 185 -14 212 -7 26 -9 53 -5 59 4 6 9 30 12 53 5 50 14 57 73 57 25 0 56
7 70 15 14 8 46 14 71 15 50 0 90 11 157 42 26 12 52 18 67 14 17 -4 28 0 39
15 13 19 19 20 62 11 45 -10 50 -9 71 15 15 16 33 24 51 23 33 -2 72 9 72 21
0 13 108 11 112 -2 2 -7 23 -7 68 1 59 10 79 13 140 18 15 2 20 9 20 31 0 27
-2 28 -69 40 -82 13 -77 13 -118 -5z"/>
</g>
</svg>
